PathFileType  4	(X/Y/Z) C:\Users\antoi\Documents\MyRepositories\mobilecap\ResultsAnalysis
DataRate	CameraRate	NumFrames	NumMarkers	Units	OrigDataRate	OrigDataStartFrame	OrigNumFrames
100.0	100.0	4	51	mm	100.0	92	147
Frame#	Time	r_knee			r_shank_antsup			r_ankle			r_calc			r_5meta			r_toe			L_knee			L_shank_antsup			L_ankle			L_calc			L_5meta			L_toe			r_sh2			r_sh3			r_sh4			L_sh2			L_sh3			r_thigh1			r_thigh2			r_thigh3			r_thigh4			r_thigh5			L_thigh1			L_thigh2			L_thigh3			L_thigh4			r.ASIS			r.PSIS			L.ASIS			L.PSIS			C7			R_Shoulder			L_Shoulder			R_Sternum			L_Sternum			R_humerus			R_elbow_med			R_elbow_lat			R_forearm			R_wrist_radius			R_wrist_ulna			L_humerus			L_elbow_med			L_elbow_lat			L_forearm			L_wrist_radius			L_wrist_ulna			R_HJC			L_HJC			R_HJC_reg			L_HJC_reg			
		X1	Y1	Z1	X2	Y2	Z2	X3	Y3	Z3	X4	Y4	Z4	X5	Y5	Z5	X6	Y6	Z6	X7	Y7	Z7	X8	Y8	Z8	X9	Y9	Z9	X10	Y10	Z10	X11	Y11	Z11	X12	Y12	Z12	X13	Y13	Z13	X14	Y14	Z14	X15	Y15	Z15	X16	Y16	Z16	X17	Y17	Z17	X18	Y18	Z18	X19	Y19	Z19	X20	Y20	Z20	X21	Y21	Z21	X22	Y22	Z22	X23	Y23	Z23	X24	Y24	Z24	X25	Y25	Z25	X26	Y26	Z26	X27	Y27	Z27	X28	Y28	Z28	X29	Y29	Z29	X30	Y30	Z30	X31	Y31	Z31	X32	Y32	Z32	X33	Y33	Z33	X34	Y34	Z34	X35	Y35	Z35	X36	Y36	Z36	X37	Y37	Z37	X38	Y38	Z38	X39	Y39	Z39	X40	Y40	Z40	X41	Y41	Z41	X42	Y42	Z42	X43	Y43	Z43	X44	Y44	Z44	X45	Y45	Z45	X46	Y46	Z46	X47	Y47	Z47	X48	Y48	Z48	X49	Y49	Z49	X50	Y50	Z50	X51	Y51	Z51	

92	0.91000000	937.67232	465.23967	-72.48114	897.81499	410.65123	-49.36833	669.62863	214.42669	-116.24930	608.19921	230.68201	-173.94059	697.31457	107.20844	-74.52359	755.94103	91.13097	-114.72259	809.35480	461.59987	-369.67562	830.66320	401.59457	-371.48093	815.31927	87.33656	-339.17948	745.50447	59.04407	-292.71758	912.11755	40.00040	-352.17128	959.15085	67.51806	-296.28038	813.88394	333.15858	-56.79151	852.07596	462.00083	-81.13229	763.22461	386.14799	-94.95414	740.66490	403.67023	-386.96912	750.90368	281.72436	-384.70682	919.09543	777.16462	-99.47764	962.68843	674.53176	-75.57980	916.31454	639.95748	-39.18152	820.62894	747.68016	-52.51990	858.38024	636.96466	-49.48383	907.08958	742.98820	-398.30195	897.44456	603.55482	-384.48782	795.10447	746.39307	-428.01399	791.04881	604.79620	-401.08991	885.54806	908.16883	-110.76416	712.16893	915.57146	-200.81160	916.88638	912.03691	-366.75026	720.15273	920.09490	-307.58479	773.32991	1382.71639	-316.32217	825.04146	1366.32115	-150.47264	838.28278	1283.78948	-455.93487	883.38918	1300.18758	-273.33784	884.76501	1288.92983	-315.80981	826.93921	1151.94063	-17.07359	764.84289	1044.50433	-32.54652	801.68515	1075.64102	22.98886	864.30788	968.01812	34.48873	894.95278	852.51313	43.88875	863.85228	848.54117	74.77912	881.50747	1154.13596	-483.96178	845.82512	938.68807	-434.58761	863.02996	944.79419	-494.29620	940.71868	866.68401	-499.61583	995.96776	754.36226	-475.40493	965.68475	734.81178	-486.29886	828.54940	829.39923	-146.08742	852.42327	836.97155	-344.79124	838.23912	819.27754	-154.55018	850.91778	826.46007	-324.16416	
93	0.92000000	955.47351	468.67536	-72.80229	917.37465	412.21700	-49.43096	697.71712	206.02663	-116.43460	635.56536	218.50570	-174.48126	730.76476	100.66068	-73.70095	790.40345	87.55390	-113.52277	813.49534	461.84182	-370.04809	834.42785	401.72218	-371.76127	815.66868	87.43341	-339.21142	745.73004	59.26372	-292.71669	912.18448	39.92282	-352.25972	959.29288	67.05660	-296.32765	836.62519	331.11746	-56.59409	869.24540	461.79219	-80.73504	783.93472	381.83183	-94.80702	744.46152	404.91181	-386.76510	753.14816	282.95041	-384.61328	930.36615	779.81108	-100.55237	976.19382	678.26122	-76.83945	931.12815	643.18955	-39.13800	833.16166	749.03546	-51.71528	873.18279	639.09293	-48.29668	913.63468	742.61103	-399.72803	903.11626	603.22595	-386.17118	801.36410	747.04302	-428.19859	796.36636	605.43115	-401.43251	896.19819	908.93722	-112.10522	721.84582	916.45150	-200.10446	925.12434	911.86958	-368.33921	729.01412	920.76309	-306.85784	784.07087	1383.16319	-317.03754	834.35183	1366.41057	-150.72464	849.96370	1284.60410	-456.36466	893.58886	1300.43205	-273.52542	895.20640	1289.27226	-316.05018	832.92737	1152.54900	-16.62292	771.92034	1044.82894	-33.18310	806.83751	1076.48256	23.29016	870.19358	969.45551	36.61313	901.89560	854.30982	46.72899	869.91578	849.85666	76.64592	893.62871	1155.08650	-484.28665	857.44957	939.33845	-436.00046	875.49637	945.57706	-495.46168	954.05326	868.11222	-499.45628	1010.14661	756.39555	-473.79910	980.41147	736.58148	-485.23849	838.71936	830.18439	-146.41429	860.53380	837.08882	-345.38810	848.17188	819.85778	-155.38577	859.56426	826.70887	-325.07299	
94	0.93000000	972.66921	471.94106	-73.08513	936.56518	413.52554	-49.46712	726.32992	197.29854	-116.59612	663.76284	205.96064	-175.11896	764.59592	94.11538	-72.80189	825.12266	83.99412	-112.17388	817.74767	462.04438	-370.35966	838.32669	401.84449	-371.98957	816.05728	87.56804	-339.22648	745.91884	59.50582	-292.74490	912.25104	39.84686	-352.32848	959.41790	66.64481	-296.36655	859.42229	328.75629	-56.36994	885.98717	461.11245	-80.19443	804.55785	377.03299	-94.55740	748.37033	406.16043	-386.55445	755.47187	284.20643	-384.53595	941.31225	782.14806	-101.73733	989.26012	681.67875	-78.30550	945.53335	646.26665	-39.19778	845.47466	750.32606	-51.01636	887.58059	641.14701	-47.20370	920.36981	742.18509	-400.88921	908.92216	602.86947	-387.49854	807.91977	747.59204	-428.42018	801.90566	606.00863	-401.67471	906.65763	909.57573	-113.33739	731.53500	917.25068	-199.54250	933.48653	911.68725	-369.76953	738.00003	921.26118	-306.31221	794.75443	1383.55007	-317.57557	843.72107	1366.47213	-150.86364	861.42591	1285.27731	-456.68825	903.77214	1300.66995	-273.60292	905.53937	1289.55772	-316.17439	839.12665	1153.08870	-16.23041	779.21629	1045.07163	-34.02733	812.17654	1077.15570	23.37639	876.15097	970.74020	38.56805	908.88406	855.94428	49.37934	876.00187	850.99322	78.24419	905.67947	1155.92654	-484.30237	869.00483	939.80094	-437.43919	888.02867	946.31978	-496.60612	967.46400	869.51627	-499.12542	1024.30195	758.33643	-472.22593	995.03831	738.25957	-484.25163	848.79418	830.85545	-146.75128	868.82348	837.14314	-345.94183	857.94401	820.47453	-156.07874	868.22352	826.85020	-325.82589	
95	0.94000000	989.24646	474.99220	-73.36371	955.30733	414.63080	-49.53919	755.44161	188.38435	-116.71249	692.75007	193.20165	-175.80361	798.78365	87.74740	-71.81760	860.03914	80.60537	-110.70172	822.14832	462.24803	-370.54550	842.33629	401.95959	-372.13385	816.48716	87.76438	-339.19872	746.07158	59.77192	-292.78614	912.31613	39.78177	-352.37451	959.54727	66.28527	-296.38748	882.19593	326.20844	-56.19090	902.29157	459.97739	-79.72125	825.08061	371.85012	-94.34781	752.38262	407.40623	-386.30265	757.87718	285.47544	-384.42315	951.96717	784.16891	-103.04300	1001.87223	684.74766	-79.99187	959.55509	649.15814	-39.37784	857.58543	751.53941	-50.42944	901.58837	643.09614	-46.23360	927.32952	741.68199	-401.78741	914.85654	602.46094	-388.43361	814.77608	748.02658	-428.62316	807.64806	606.53276	-401.74163	916.87258	910.06053	-114.47363	741.22739	917.94108	-199.11599	942.00407	911.45924	-371.02035	747.09556	921.59476	-305.93430	805.37509	1383.88174	-317.93990	853.16062	1366.49551	-150.91542	872.67853	1285.84573	-456.91531	913.95265	1300.88107	-273.58610	915.78853	1289.78400	-316.19676	845.58335	1153.54338	-15.88605	786.75713	1045.23112	-35.03144	817.75723	1077.66811	23.28380	882.23761	971.85998	40.36666	915.95705	857.40636	51.88584	882.15312	851.94798	79.60848	917.63981	1156.67812	-484.02377	880.49592	940.13430	-438.90492	900.64378	947.05746	-497.69800	980.94441	870.93841	-498.55280	1038.42217	760.19672	-470.66701	1009.54308	739.86908	-483.32386	858.74051	831.38703	-147.08948	877.28613	837.11504	-346.44667	867.56651	821.07367	-156.65744	876.89658	826.88246	-326.43278	
